<svg xmlns="http://www.w3.org/2000/svg" viewBox="0 0 12 12" shape-rendering="crispEdges" fill="#6B4A7A">
  <!-- Top tip -->
  <rect x="3" y="0" width="4" height="1"/>
  <!-- Top curve -->
  <rect x="2" y="1" width="6" height="1"/>
  <rect x="1" y="2" width="5" height="1"/>
  <rect x="0" y="3" width="5" height="1"/>
  <!-- Spine (chubby left side) -->
  <rect x="0" y="4" width="4" height="2"/>
  <!-- Sleepy eye row (1-pixel gap at col 2) -->
  <rect x="0" y="6" width="2" height="1"/>
  <rect x="3" y="6" width="1" height="1"/>
  <!-- Spine continues -->
  <rect x="0" y="7" width="4" height="1"/>
  <!-- Bottom curve -->
  <rect x="0" y="8" width="5" height="1"/>
  <rect x="1" y="9" width="5" height="1"/>
  <rect x="2" y="10" width="6" height="1"/>
  <!-- Bottom tip -->
  <rect x="3" y="11" width="4" height="1"/>
  <!-- Tiny star (3x3 plus) in the empty space between the moon's two points -->
  <rect x="6" y="5" width="1" height="1"/>
  <rect x="5" y="6" width="3" height="1"/>
  <rect x="6" y="7" width="1" height="1"/>
</svg>
